<?xml version="1.0" encoding="UTF-8"?>
<svg xmlns="http://www.w3.org/2000/svg" xmlns:xlink="http://www.w3.org/1999/xlink" width="32px" height="32px" viewBox="0 0 32 32" version="1.1">
<g id="surface1">
<path style=" stroke:none;fill-rule:nonzero;fill:rgb(100%,100%,100%);fill-opacity:1;" d="M 14.867188 0.046875 C 21.933594 -0.445312 26.625 3.015625 29.304688 7.230469 C 30.648438 9.34375 31.964844 12.554688 31.972656 15.851562 C 31.980469 19.4375 30.816406 22.539062 29.304688 24.816406 C 27.746094 27.15625 25.734375 29.089844 23.214844 30.359375 C 19 32.480469 13.109375 32.539062 9.253906 30.496094 C 4.957031 28.222656 1.65625 24.976562 0.425781 19.34375 C -0.0664062 17.089844 -0.121094 14.175781 0.5625 11.679688 C 0.722656 11.09375 1.015625 10.476562 1.246094 9.898438 C 2.359375 7.132812 4.25 4.722656 6.585938 3.058594 C 7.523438 2.386719 8.660156 1.722656 9.664062 1.277344 C 10.914062 0.726562 13.015625 0.175781 14.867188 0.046875 Z M 14.867188 0.046875 "/>
<path style=" stroke:none;fill-rule:nonzero;fill:rgb(0%,0%,0%);fill-opacity:1;" d="M 28.277344 16.253906 C 28.277344 22.933594 22.859375 28.351562 16.175781 28.351562 C 9.496094 28.351562 4.078125 22.933594 4.078125 16.253906 C 4.078125 9.570312 9.496094 4.152344 16.175781 4.152344 C 22.859375 4.152344 28.277344 9.570312 28.277344 16.253906 Z M 28.277344 16.253906 "/>
<path style=" stroke:none;fill-rule:nonzero;fill:rgb(0%,0%,0%);fill-opacity:1;" d="M 14.867188 0.046875 C 21.933594 -0.445312 26.625 3.015625 29.304688 7.230469 C 30.648438 9.34375 31.964844 12.554688 31.972656 15.851562 C 31.980469 19.4375 30.816406 22.539062 29.304688 24.816406 C 27.746094 27.15625 25.734375 29.089844 23.214844 30.359375 C 19 32.480469 13.109375 32.539062 9.253906 30.496094 C 4.957031 28.222656 1.65625 24.976562 0.425781 19.34375 C -0.0664062 17.089844 -0.121094 14.175781 0.5625 11.679688 C 0.722656 11.09375 1.015625 10.476562 1.246094 9.898438 C 2.359375 7.132812 4.25 4.722656 6.585938 3.058594 C 7.523438 2.386719 8.660156 1.722656 9.664062 1.277344 C 10.914062 0.726562 13.015625 0.175781 14.867188 0.046875 Z M 12.46875 1.210938 C 9.84375 1.890625 7.917969 3.109375 6.242188 4.425781 C 3.828125 6.324219 2.289062 8.96875 1.386719 12.160156 C 0.382812 15.707031 1.027344 19.996094 2.410156 22.695312 C 3.847656 25.496094 5.777344 27.667969 8.5 29.195312 C 11.152344 30.683594 14.878906 31.640625 18.765625 30.90625 C 22.21875 30.257812 24.839844 28.753906 26.976562 26.527344 C 29.835938 23.554688 32.132812 18.074219 30.605469 12.296875 C 30.195312 10.75 29.660156 9.140625 28.824219 7.777344 C 28.371094 7.042969 27.710938 6.320312 27.046875 5.589844 C 24.539062 2.835938 20.488281 0.464844 15.277344 0.800781 C 14.285156 0.863281 13.414062 0.964844 12.46875 1.210938 Z M 12.46875 1.210938 "/>
<path style=" stroke:none;fill-rule:nonzero;fill:rgb(100%,100%,100%);fill-opacity:1;" d="M 16.945312 30.800781 L 30.929688 16.820312 L 30.851562 16.742188 L 16.871094 30.722656 Z M 16.945312 30.800781 "/>
<path style=" stroke:none;fill-rule:nonzero;fill:rgb(100%,100%,100%);fill-opacity:1;" d="M 15.726562 29.691406 L 29.765625 15.652344 L 29.691406 15.574219 L 15.648438 29.617188 Z M 15.726562 29.691406 "/>
<path style=" stroke:none;fill-rule:nonzero;fill:rgb(100%,100%,100%);fill-opacity:1;" d="M 14.503906 28.585938 L 28.605469 14.484375 L 28.53125 14.40625 L 14.425781 28.511719 Z M 14.503906 28.585938 "/>
<path style=" stroke:none;fill-rule:nonzero;fill:rgb(100%,100%,100%);fill-opacity:1;" d="M 13.28125 27.476562 L 27.445312 13.316406 L 27.367188 13.238281 L 13.203125 27.402344 Z M 13.28125 27.476562 "/>
<path style=" stroke:none;fill-rule:nonzero;fill:rgb(100%,100%,100%);fill-opacity:1;" d="M 12.058594 26.371094 L 26.28125 12.148438 L 26.207031 12.070312 L 11.984375 26.296875 Z M 12.058594 26.371094 "/>
<path style=" stroke:none;fill-rule:nonzero;fill:rgb(100%,100%,100%);fill-opacity:1;" d="M 10.835938 25.265625 L 25.121094 10.980469 L 25.046875 10.902344 L 10.761719 25.1875 Z M 10.835938 25.265625 "/>
<path style=" stroke:none;fill-rule:nonzero;fill:rgb(100%,100%,100%);fill-opacity:1;" d="M 9.613281 24.15625 L 23.960938 9.808594 L 23.886719 9.734375 L 9.539062 24.082031 Z M 9.613281 24.15625 "/>
<path style=" stroke:none;fill-rule:nonzero;fill:rgb(100%,100%,100%);fill-opacity:1;" d="M 8.390625 23.050781 L 22.800781 8.640625 L 22.722656 8.566406 L 8.316406 22.972656 Z M 8.390625 23.050781 "/>
<path style=" stroke:none;fill-rule:nonzero;fill:rgb(100%,100%,100%);fill-opacity:1;" d="M 7.167969 21.941406 L 21.636719 7.472656 L 21.5625 7.398438 L 7.09375 21.867188 Z M 7.167969 21.941406 "/>
<path style=" stroke:none;fill-rule:nonzero;fill:rgb(100%,100%,100%);fill-opacity:1;" d="M 5.945312 20.835938 L 20.476562 6.304688 L 20.402344 6.230469 L 5.871094 20.761719 Z M 5.945312 20.835938 "/>
<path style=" stroke:none;fill-rule:nonzero;fill:rgb(100%,100%,100%);fill-opacity:1;" d="M 4.726562 19.726562 L 19.316406 5.136719 L 19.238281 5.0625 L 4.648438 19.652344 Z M 4.726562 19.726562 "/>
<path style=" stroke:none;fill-rule:nonzero;fill:rgb(100%,100%,100%);fill-opacity:1;" d="M 3.503906 18.621094 L 18.15625 3.96875 L 18.078125 3.894531 L 3.425781 18.546875 Z M 3.503906 18.621094 "/>
<path style=" stroke:none;fill-rule:nonzero;fill:rgb(100%,100%,100%);fill-opacity:1;" d="M 2.28125 17.515625 L 16.992188 2.800781 L 16.917969 2.726562 L 2.203125 17.4375 Z M 2.28125 17.515625 "/>
<path style=" stroke:none;fill-rule:nonzero;fill:rgb(100%,100%,100%);fill-opacity:1;" d="M 1.058594 16.40625 L 15.832031 1.632812 L 15.757812 1.558594 L 0.984375 16.332031 Z M 1.058594 16.40625 "/>
<path style=" stroke:none;fill-rule:nonzero;fill:rgb(100%,100%,100%);fill-opacity:1;" d="M 0.976562 16.546875 L 15.238281 30.808594 L 15.3125 30.734375 L 1.054688 16.472656 Z M 0.976562 16.546875 "/>
<path style=" stroke:none;fill-rule:nonzero;fill:rgb(100%,100%,100%);fill-opacity:1;" d="M 2.132812 15.375 L 16.421875 29.664062 L 16.496094 29.589844 L 2.210938 15.300781 Z M 2.132812 15.375 "/>
<path style=" stroke:none;fill-rule:nonzero;fill:rgb(100%,100%,100%);fill-opacity:1;" d="M 3.289062 14.203125 L 17.605469 28.519531 L 17.683594 28.441406 L 3.367188 14.125 Z M 3.289062 14.203125 "/>
<path style=" stroke:none;fill-rule:nonzero;fill:rgb(100%,100%,100%);fill-opacity:1;" d="M 4.445312 13.03125 L 18.789062 27.375 L 18.867188 27.296875 L 4.523438 12.953125 Z M 4.445312 13.03125 "/>
<path style=" stroke:none;fill-rule:nonzero;fill:rgb(100%,100%,100%);fill-opacity:1;" d="M 5.605469 11.855469 L 19.972656 26.226562 L 20.050781 26.152344 L 5.679688 11.78125 Z M 5.605469 11.855469 "/>
<path style=" stroke:none;fill-rule:nonzero;fill:rgb(100%,100%,100%);fill-opacity:1;" d="M 6.761719 10.683594 L 21.160156 25.082031 L 21.234375 25.007812 L 6.835938 10.609375 Z M 6.761719 10.683594 "/>
<path style=" stroke:none;fill-rule:nonzero;fill:rgb(100%,100%,100%);fill-opacity:1;" d="M 7.917969 9.511719 L 22.34375 23.9375 L 22.417969 23.863281 L 7.992188 9.433594 Z M 7.917969 9.511719 "/>
<path style=" stroke:none;fill-rule:nonzero;fill:rgb(100%,100%,100%);fill-opacity:1;" d="M 9.074219 8.335938 L 23.527344 22.792969 L 23.601562 22.71875 L 9.148438 8.261719 Z M 9.074219 8.335938 "/>
<path style=" stroke:none;fill-rule:nonzero;fill:rgb(100%,100%,100%);fill-opacity:1;" d="M 10.230469 7.164062 L 24.710938 21.648438 L 24.785156 21.570312 L 10.304688 7.089844 Z M 10.230469 7.164062 "/>
<path style=" stroke:none;fill-rule:nonzero;fill:rgb(100%,100%,100%);fill-opacity:1;" d="M 11.386719 5.992188 L 25.894531 20.5 L 25.972656 20.425781 L 11.460938 5.917969 Z M 11.386719 5.992188 "/>
<path style=" stroke:none;fill-rule:nonzero;fill:rgb(100%,100%,100%);fill-opacity:1;" d="M 12.542969 4.820312 L 27.078125 19.355469 L 27.15625 19.28125 L 12.617188 4.742188 Z M 12.542969 4.820312 "/>
<path style=" stroke:none;fill-rule:nonzero;fill:rgb(100%,100%,100%);fill-opacity:1;" d="M 13.699219 3.644531 L 28.265625 18.210938 L 28.339844 18.136719 L 13.773438 3.570312 Z M 13.699219 3.644531 "/>
<path style=" stroke:none;fill-rule:nonzero;fill:rgb(100%,100%,100%);fill-opacity:1;" d="M 14.855469 2.472656 L 29.449219 17.066406 L 29.523438 16.992188 L 14.929688 2.398438 Z M 14.855469 2.472656 "/>
<path style=" stroke:none;fill-rule:nonzero;fill:rgb(100%,100%,100%);fill-opacity:1;" d="M 16.011719 1.300781 L 30.632812 15.921875 L 30.707031 15.84375 L 16.085938 1.222656 Z M 16.011719 1.300781 "/>
<path style=" stroke:none;fill-rule:nonzero;fill:rgb(0%,0%,0%);fill-opacity:1;" d="M 26.222656 5.65625 C 24.964844 4.398438 23.417969 3.265625 21.570312 2.578125 C 19.65625 1.867188 17.488281 1.265625 14.933594 1.484375 C 10.863281 1.832031 8.003906 3.65625 5.832031 5.792969 C 4.3125 7.292969 3.167969 9.125 2.410156 11.269531 C 1.300781 14.414062 1.371094 18.128906 2.617188 21.328125 C 3.679688 24.058594 5.421875 26.257812 7.886719 27.964844 C 10.203125 29.570312 13.527344 30.8125 17.261719 30.496094 C 21.808594 30.113281 25.136719 27.78125 27.320312 25.089844 C 27.878906 24.402344 28.433594 23.625 28.757812 22.695312 C 29.074219 22.027344 29.226562 21.570312 29.371094 21.328125 C 29.980469 19.96875 30.300781 18.535156 30.398438 16.949219 C 30.703125 12.070312 28.824219 8.257812 26.222656 5.65625 Z M 24.882812 20.523438 C 24.875 20.542969 24.867188 20.558594 24.859375 20.578125 C 24.632812 21.226562 24.246094 21.765625 23.855469 22.242188 C 22.328125 24.109375 20 25.730469 16.820312 25.996094 C 14.207031 26.214844 11.882812 25.351562 10.261719 24.238281 C 8.855469 23.269531 7.785156 22.074219 7.035156 20.632812 C 6.988281 20.546875 6.554688 19.542969 6.554688 19.5 C 5.957031 17.65625 5.90625 14.691406 6.515625 12.910156 C 6.925781 11.722656 7.601562 10.4375 8.5 9.421875 C 9.742188 8.015625 10.984375 7.117188 12.949219 6.480469 C 13.847656 6.1875 14.648438 5.890625 15.753906 5.863281 C 18.449219 5.792969 21.191406 7 22.667969 8.328125 C 24.019531 9.542969 25.5625 11.917969 25.949219 14.144531 C 26.351562 16.433594 25.925781 18.671875 24.882812 20.523438 Z M 24.882812 20.523438 "/>
<path style=" stroke:none;fill-rule:nonzero;fill:rgb(100%,100%,100%);fill-opacity:1;" d="M 20.199219 22.722656 C 19.539062 22.722656 18.957031 22.300781 18.753906 21.675781 L 18.011719 19.425781 L 14.316406 19.425781 L 13.628906 21.65625 C 13.421875 22.292969 12.835938 22.71875 12.167969 22.71875 C 12.007812 22.71875 11.851562 22.695312 11.695312 22.644531 C 10.898438 22.40625 10.445312 21.546875 10.691406 20.734375 L 13.8125 10.847656 C 14.011719 10.222656 14.609375 9.78125 15.261719 9.78125 L 16.921875 9.78125 C 17.574219 9.78125 18.171875 10.214844 18.371094 10.832031 L 21.652344 20.710938 C 21.914062 21.519531 21.480469 22.386719 20.683594 22.644531 C 20.527344 22.695312 20.363281 22.722656 20.199219 22.722656 Z M 20.199219 22.722656 "/>
<path style=" stroke:none;fill-rule:nonzero;fill:rgb(0%,0%,0%);fill-opacity:1;" d="M 20.199219 22.507812 C 19.605469 22.507812 19.085938 22.132812 18.902344 21.574219 L 18.164062 19.320312 L 18.128906 19.210938 L 14.199219 19.210938 L 14.164062 19.324219 L 13.476562 21.554688 C 13.292969 22.125 12.765625 22.507812 12.167969 22.507812 C 12.027344 22.507812 11.882812 22.484375 11.746094 22.4375 C 11.03125 22.222656 10.625 21.457031 10.84375 20.726562 L 13.964844 10.84375 C 14.144531 10.28125 14.679688 9.890625 15.261719 9.890625 L 16.921875 9.890625 C 17.507812 9.890625 18.042969 10.273438 18.21875 10.828125 L 21.5 20.707031 C 21.734375 21.429688 21.347656 22.207031 20.636719 22.4375 C 20.492188 22.484375 20.347656 22.507812 20.199219 22.507812 Z M 20.199219 22.828125 C 20.382812 22.828125 20.5625 22.800781 20.734375 22.742188 C 21.613281 22.457031 22.09375 21.5 21.804688 20.609375 L 18.523438 10.726562 C 18.304688 10.042969 17.644531 9.570312 16.921875 9.570312 L 15.261719 9.570312 C 14.539062 9.570312 13.882812 10.050781 13.660156 10.746094 L 10.539062 20.632812 C 10.269531 21.53125 10.765625 22.480469 11.648438 22.746094 C 11.816406 22.796875 11.992188 22.828125 12.167969 22.828125 C 12.90625 22.828125 13.554688 22.355469 13.78125 21.652344 L 14.46875 19.417969 L 14.316406 19.53125 L 18.011719 19.53125 L 17.859375 19.421875 L 18.601562 21.671875 C 18.824219 22.363281 19.46875 22.828125 20.199219 22.828125 Z M 20.199219 22.828125 "/>
<path style=" stroke:none;fill-rule:nonzero;fill:rgb(100%,100%,100%);fill-opacity:1;" d="M 7.945312 6.632812 L 7.941406 6.625 C 7.554688 6.09375 7.667969 5.347656 8.242188 4.929688 C 8.8125 4.511719 9.550781 4.628906 9.9375 5.160156 L 9.941406 5.167969 C 10.332031 5.699219 10.21875 6.445312 9.644531 6.863281 C 9.070312 7.28125 8.335938 7.164062 7.945312 6.632812 Z M 9.421875 5.554688 L 9.417969 5.550781 C 9.222656 5.28125 8.859375 5.191406 8.574219 5.398438 C 8.292969 5.601562 8.269531 5.96875 8.46875 6.238281 L 8.472656 6.242188 C 8.667969 6.507812 9.03125 6.601562 9.3125 6.398438 C 9.59375 6.1875 9.617188 5.824219 9.421875 5.554688 Z M 9.421875 5.554688 "/>
<path style=" stroke:none;fill-rule:nonzero;fill:rgb(100%,100%,100%);fill-opacity:1;" d="M 11.699219 3.136719 L 12.28125 2.949219 L 13.921875 4.855469 L 13.273438 5.0625 L 12.988281 4.722656 L 12.144531 4.996094 L 12.113281 5.4375 L 11.472656 5.640625 Z M 12.660156 4.308594 L 12.21875 3.765625 L 12.167969 4.464844 Z M 12.660156 4.308594 "/>
<path style=" stroke:none;fill-rule:nonzero;fill:rgb(100%,100%,100%);fill-opacity:1;" d="M 14.976562 3.710938 L 14.980469 2.417969 L 15.628906 2.421875 L 15.621094 3.699219 C 15.621094 4.03125 15.789062 4.191406 16.042969 4.191406 C 16.300781 4.191406 16.46875 4.042969 16.46875 3.71875 L 16.476562 2.425781 L 17.121094 2.429688 L 17.117188 3.703125 C 17.113281 4.445312 16.6875 4.769531 16.035156 4.765625 C 15.382812 4.761719 14.972656 4.429688 14.976562 3.710938 Z M 14.976562 3.710938 "/>
<path style=" stroke:none;fill-rule:nonzero;fill:rgb(100%,100%,100%);fill-opacity:1;" d="M 19.460938 3.484375 L 18.800781 3.285156 L 18.960938 2.75 L 20.890625 3.339844 L 20.726562 3.871094 L 20.070312 3.671875 L 19.558594 5.335938 L 18.949219 5.148438 Z M 19.460938 3.484375 "/>
<path style=" stroke:none;fill-rule:nonzero;fill:rgb(100%,100%,100%);fill-opacity:1;" d="M 22.613281 4.082031 L 23.144531 4.4375 L 22.667969 5.152344 L 23.347656 5.605469 L 23.824219 4.890625 L 24.355469 5.242188 L 23.082031 7.15625 L 22.550781 6.804688 L 23.035156 6.074219 L 22.355469 5.621094 L 21.871094 6.351562 L 21.339844 5.996094 Z M 22.613281 4.082031 "/>
<path style=" stroke:none;fill-rule:nonzero;fill:rgb(100%,100%,100%);fill-opacity:1;" d="M 24.488281 25.007812 L 24.492188 25.011719 C 24.902344 25.53125 24.816406 26.28125 24.257812 26.71875 C 23.703125 27.160156 22.960938 27.070312 22.550781 26.550781 L 22.546875 26.546875 C 22.140625 26.03125 22.226562 25.28125 22.78125 24.839844 C 23.339844 24.398438 24.078125 24.488281 24.488281 25.007812 Z M 23.054688 26.140625 L 23.058594 26.144531 C 23.265625 26.40625 23.632812 26.484375 23.90625 26.265625 C 24.179688 26.050781 24.1875 25.683594 23.984375 25.421875 L 23.980469 25.417969 C 23.773438 25.15625 23.40625 25.078125 23.132812 25.292969 C 22.855469 25.511719 22.847656 25.878906 23.054688 26.140625 Z M 23.054688 26.140625 "/>
<path style=" stroke:none;fill-rule:nonzero;fill:rgb(100%,100%,100%);fill-opacity:1;" d="M 20.890625 28.648438 L 20.316406 28.863281 L 18.59375 27.03125 L 19.234375 26.792969 L 19.535156 27.121094 L 20.367188 26.8125 L 20.375 26.371094 L 21.003906 26.136719 Z M 19.878906 27.523438 L 20.34375 28.046875 L 20.363281 27.34375 Z M 19.878906 27.523438 "/>
<path style=" stroke:none;fill-rule:nonzero;fill:rgb(100%,100%,100%);fill-opacity:1;" d="M 17.59375 28.210938 L 17.652344 29.503906 L 17.003906 29.53125 L 16.949219 28.253906 C 16.933594 27.921875 16.757812 27.773438 16.503906 27.785156 C 16.246094 27.796875 16.085938 27.953125 16.101562 28.273438 L 16.15625 29.566406 L 15.511719 29.597656 L 15.457031 28.324219 C 15.421875 27.582031 15.832031 27.238281 16.484375 27.210938 C 17.136719 27.179688 17.5625 27.492188 17.59375 28.210938 Z M 17.59375 28.210938 "/>
<path style=" stroke:none;fill-rule:nonzero;fill:rgb(100%,100%,100%);fill-opacity:1;" d="M 13.101562 28.632812 L 13.769531 28.8125 L 13.621094 29.351562 L 11.675781 28.828125 L 11.820312 28.289062 L 12.488281 28.46875 L 12.941406 26.789062 L 13.554688 26.953125 Z M 13.101562 28.632812 "/>
<path style=" stroke:none;fill-rule:nonzero;fill:rgb(100%,100%,100%);fill-opacity:1;" d="M 9.953125 28.164062 L 9.40625 27.839844 L 9.851562 27.101562 L 9.148438 26.679688 L 8.707031 27.417969 L 8.160156 27.089844 L 9.34375 25.117188 L 9.886719 25.445312 L 9.441406 26.195312 L 10.140625 26.617188 L 10.589844 25.867188 L 11.136719 26.195312 Z M 9.953125 28.164062 "/>
</g>
</svg>
