<?xml version="1.0" encoding="UTF-8"?>
<svg xmlns="http://www.w3.org/2000/svg" xmlns:xlink="http://www.w3.org/1999/xlink" width="32px" height="32px" viewBox="0 0 32 32" version="1.1">
<g id="surface1">
<path style=" stroke:none;fill-rule:nonzero;fill:rgb(1.176471%,0.392157%,1.568627%);fill-opacity:1;" d="M 29.714844 2.285156 L 2.289062 2.285156 C 1.023438 2.285156 0 3.304688 0 4.570312 L 0 27.429688 C 0 28.691406 1.023438 29.714844 2.289062 29.714844 L 29.714844 29.714844 C 30.972656 29.714844 32 28.691406 32 27.429688 L 32 4.570312 C 32 3.304688 30.972656 2.285156 29.714844 2.285156 Z M 10.929688 4.003906 C 11.558594 4.003906 12.070312 4.507812 12.070312 5.144531 C 12.070312 5.773438 11.558594 6.285156 10.929688 6.285156 C 10.300781 6.285156 9.785156 5.773438 9.785156 5.144531 C 9.785156 4.507812 10.300781 4.003906 10.929688 4.003906 Z M 7.433594 4.003906 C 8.058594 4.003906 8.574219 4.507812 8.574219 5.144531 C 8.574219 5.773438 8.058594 6.285156 7.433594 6.285156 C 6.796875 6.285156 6.285156 5.773438 6.285156 5.144531 C 6.285156 4.507812 6.796875 4.003906 7.433594 4.003906 Z M 4 4.003906 C 4.632812 4.003906 5.140625 4.507812 5.140625 5.144531 C 5.140625 5.773438 4.632812 6.285156 4 6.285156 C 3.371094 6.285156 2.859375 5.773438 2.859375 5.144531 C 2.859375 4.507812 3.371094 4.003906 4 4.003906 Z M 29.714844 27.429688 L 2.289062 27.429688 L 2.289062 8.027344 L 29.714844 8.027344 Z M 29.714844 27.429688 "/>
<path style=" stroke:none;fill-rule:nonzero;fill:rgb(1.176471%,0.392157%,1.568627%);fill-opacity:1;" d="M 2.289062 8.027344 L 29.714844 8.027344 L 29.714844 27.429688 L 2.289062 27.429688 Z M 2.289062 8.027344 "/>
<path style=" stroke:none;fill-rule:nonzero;fill:rgb(1.176471%,0.392157%,1.568627%);fill-opacity:1;" d="M 4.910156 11.144531 L 8.25 11.144531 L 8.25 14.488281 L 4.910156 14.488281 Z M 4.910156 11.144531 "/>
<path style=" stroke:none;fill-rule:nonzero;fill:rgb(1.176471%,0.392157%,1.568627%);fill-opacity:1;" d="M 9.660156 11.144531 L 13.003906 11.144531 L 13.003906 14.488281 L 9.660156 14.488281 Z M 9.660156 11.144531 "/>
<path style=" stroke:none;fill-rule:nonzero;fill:rgb(1.176471%,0.392157%,1.568627%);fill-opacity:1;" d="M 14.386719 11.144531 L 17.726562 11.144531 L 17.726562 14.488281 L 14.386719 14.488281 Z M 14.386719 11.144531 "/>
<path style=" stroke:none;fill-rule:nonzero;fill:rgb(1.176471%,0.392157%,1.568627%);fill-opacity:1;" d="M 4.910156 15.503906 L 8.25 15.503906 L 8.25 18.847656 L 4.910156 18.847656 Z M 4.910156 15.503906 "/>
<path style=" stroke:none;fill-rule:nonzero;fill:rgb(1.176471%,0.392157%,1.568627%);fill-opacity:1;" d="M 9.660156 15.503906 L 13.003906 15.503906 L 13.003906 18.847656 L 9.660156 18.847656 Z M 9.660156 15.503906 "/>
<path style=" stroke:none;fill-rule:nonzero;fill:rgb(1.176471%,0.392157%,1.568627%);fill-opacity:1;" d="M 14.386719 15.503906 L 17.726562 15.503906 L 17.726562 18.847656 L 14.386719 18.847656 Z M 14.386719 15.503906 "/>
<path style=" stroke:none;fill-rule:nonzero;fill:rgb(1.176471%,0.392157%,1.568627%);fill-opacity:1;" d="M 4.921875 20.019531 L 8.265625 20.019531 L 8.265625 23.363281 L 4.921875 23.363281 Z M 4.921875 20.019531 "/>
<path style=" stroke:none;fill-rule:nonzero;fill:rgb(1.176471%,0.392157%,1.568627%);fill-opacity:1;" d="M 9.675781 20.019531 L 13.015625 20.019531 L 13.015625 23.363281 L 9.675781 23.363281 Z M 9.675781 20.019531 "/>
<path style=" stroke:none;fill-rule:nonzero;fill:rgb(1.176471%,0.392157%,1.568627%);fill-opacity:1;" d="M 14.398438 20.019531 L 17.742188 20.019531 L 17.742188 23.363281 L 14.398438 23.363281 Z M 14.398438 20.019531 "/>
<path style=" stroke:none;fill-rule:nonzero;fill:rgb(1.176471%,0.392157%,1.568627%);fill-opacity:1;" d="M 19.019531 11.144531 L 22.355469 11.144531 L 22.355469 14.488281 L 19.019531 14.488281 Z M 19.019531 11.144531 "/>
<path style=" stroke:none;fill-rule:nonzero;fill:rgb(1.176471%,0.392157%,1.568627%);fill-opacity:1;" d="M 23.742188 11.144531 L 27.082031 11.144531 L 27.082031 14.488281 L 23.742188 14.488281 Z M 23.742188 11.144531 "/>
<path style=" stroke:none;fill-rule:nonzero;fill:rgb(1.176471%,0.392157%,1.568627%);fill-opacity:1;" d="M 19.019531 15.503906 L 22.355469 15.503906 L 22.355469 18.847656 L 19.019531 18.847656 Z M 19.019531 15.503906 "/>
<path style=" stroke:none;fill-rule:nonzero;fill:rgb(1.176471%,0.392157%,1.568627%);fill-opacity:1;" d="M 23.742188 15.503906 L 27.082031 15.503906 L 27.082031 18.847656 L 23.742188 18.847656 Z M 23.742188 15.503906 "/>
<path style=" stroke:none;fill-rule:nonzero;fill:rgb(1.176471%,0.392157%,1.568627%);fill-opacity:1;" d="M 19.027344 20.019531 L 22.367188 20.019531 L 22.367188 23.363281 L 19.027344 23.363281 Z M 19.027344 20.019531 "/>
<path style=" stroke:none;fill-rule:nonzero;fill:rgb(1.176471%,0.392157%,1.568627%);fill-opacity:1;" d="M 23.753906 20.019531 L 27.09375 20.019531 L 27.09375 23.363281 L 23.753906 23.363281 Z M 23.753906 20.019531 "/>
</g>
</svg>
